HIERARCHY
ROOT Bip001_Pelvis
{
  OFFSET 34.4345 95.6767 -26.8758
  CHANNELS 6 Xposition Yposition Zposition Zrotation Xrotation Yrotation
  JOINT Bip001_Spine
  {
    OFFSET 1.4188e-005 10.2191 -0.0116013
    CHANNELS 3 Zrotation Xrotation Yrotation
    JOINT Bip001_L_Thigh
    {
      OFFSET 11.0458 -10.2192 0.0116197
      CHANNELS 3 Zrotation Xrotation Yrotation
      JOINT Bip001_L_Calf
      {
        OFFSET -0.707118 -44.0221 0.360014
        CHANNELS 3 Zrotation Xrotation Yrotation
        JOINT Bip001_L_Foot
        {
          OFFSET -0.651902 -40.5938 -3.56146
          CHANNELS 3 Zrotation Xrotation Yrotation
          JOINT Bip001_L_Toe0
          {
            OFFSET 0.0530839 -10.2181 13.1504
            CHANNELS 3 Zrotation Xrotation Yrotation
            End Site
            {
              OFFSET -1.02532e-005 0 7.55606
            }
          }
        }
      }
    }
    JOINT Bip001_R_Thigh
    {
      OFFSET -11.0458 -10.2191 0.0115893
      CHANNELS 3 Zrotation Xrotation Yrotation
      JOINT Bip001_R_Calf
      {
        OFFSET 0.706994 -44.0221 0.35984
        CHANNELS 3 Zrotation Xrotation Yrotation
        JOINT Bip001_R_Foot
        {
          OFFSET 0.651786 -40.5938 -3.5613
          CHANNELS 3 Zrotation Xrotation Yrotation
          JOINT Bip001_R_Toe0
          {
            OFFSET -0.0531479 -10.2181 13.1504
            CHANNELS 3 Zrotation Xrotation Yrotation
            End Site
            {
              OFFSET -1.02894e-005 0 7.55606
            }
          }
        }
      }
    }
    JOINT Bip001_Spine1
    {
      OFFSET 1.87041e-005 14.5736 1.08638
      CHANNELS 3 Zrotation Xrotation Yrotation
      JOINT Bip001_Spine2
      {
        OFFSET 2.24614e-005 14.5058 -1.69078
        CHANNELS 3 Zrotation Xrotation Yrotation
        JOINT Bip001_Neck
        {
          OFFSET 2.20278e-005 15.3945 -0.489414
          CHANNELS 3 Zrotation Xrotation Yrotation
          JOINT Bip001_L_Clavicle
          {
            OFFSET 6.06036 -0.000579998 0.00836775
            CHANNELS 3 Zrotation Xrotation Yrotation
            JOINT Bip001_L_UpperArm
            {
              OFFSET 11.5509 -0.0600302 0.00193952
              CHANNELS 3 Zrotation Xrotation Yrotation
              JOINT Bip001_L_Forearm
              {
                OFFSET 25.9523 0.0806089 -2.15551
                CHANNELS 3 Zrotation Xrotation Yrotation
                JOINT Bip001_L_Hand
                {
                  OFFSET 32.2475 0.153767 1.63968
                  CHANNELS 3 Zrotation Xrotation Yrotation
                  JOINT Bip001_L_Finger0
                  {
                    OFFSET 6.04639 -2.20976 5.90322
                    CHANNELS 3 Zrotation Xrotation Yrotation
                    End Site
                    {
                      OFFSET 4.22375 -1.43895 0.606485
                    }
                  }
                  JOINT Bip001_L_Finger1
                  {
                    OFFSET 11.0826 -0.704819 -0.198153
                    CHANNELS 3 Zrotation Xrotation Yrotation
                    End Site
                    {
                      OFFSET 6.20027 -0.397518 -0.0787166
                    }
                  }
                }
              }
            }
          }
          JOINT Bip001_R_Clavicle
          {
            OFFSET -6.06037 -0.000563197 0.00835105
            CHANNELS 3 Zrotation Xrotation Yrotation
            JOINT Bip001_R_UpperArm
            {
              OFFSET -11.5509 -0.0599978 0.00190698
              CHANNELS 3 Zrotation Xrotation Yrotation
              JOINT Bip001_R_Forearm
              {
                OFFSET -25.9523 0.0806822 -2.15589
                CHANNELS 3 Zrotation Xrotation Yrotation
                JOINT Bip001_R_Hand
                {
                  OFFSET -32.2475 0.153859 1.63989
                  CHANNELS 3 Zrotation Xrotation Yrotation
                  JOINT Bip001_R_Finger0
                  {
                    OFFSET -6.04641 -2.20976 5.90317
                    CHANNELS 3 Zrotation Xrotation Yrotation
                    End Site
                    {
                      OFFSET -4.22376 -1.43895 0.60647
                    }
                  }
                  JOINT Bip001_R_Finger1
                  {
                    OFFSET -11.0826 -0.704794 -0.198182
                    CHANNELS 3 Zrotation Xrotation Yrotation
                    End Site
                    {
                      OFFSET -6.20028 -0.397504 -0.0787333
                    }
                  }
                }
              }
            }
          }
          JOINT Bip001_Head
          {
            OFFSET 1.09673e-005 11.2744 2.05948
            CHANNELS 3 Zrotation Xrotation Yrotation
            End Site
            {
              OFFSET 2.89576e-005 20.8808 -2.77728e-005
            }
          }
        }
      }
    }
  }
}
MOTION
Frames:	9
Frame Time:	0.04
34.6882 95.5889 -32.0077 -3.21915 1.30379 16.8325 -0.310974 1.86286 -0.526126 8.49114 -13.4374 3.86439 -1.2589 16.96 -10.259 3.31964 -6.51842 0.0455878 1.33374 -4.0999 -0.939988 -0.797319 -1.55814 -1.22692 1.47973 5.48552 -1.86922 -9.54187 -2.33824 -14.9969 3.10417 -10.1634 3.14637 -0.603817 3.72865 -1.04316 -0.598008 3.72859 -1.04306 -1.10965 -6.53579 0.777432 -23.5514 7.95665 0.0325138 -54.8131 46.1573 13.0693 15.8243 -18.3043 -41.6154 10.0279 1.00735 1.51876 -1.59028e-015 -9.54166e-015 9.54166e-015 -1.59028e-015 -6.36111e-015 6.36111e-015 11.2711 13.5699 35.5454 24.937 -38.3675 20.6225 -51.0656 -1.64531 69.0652 -36.3467 1.37063 4.89553 4.77083e-015 -3.18055e-015 3.18055e-015 1.59028e-015 0 2.38542e-015 -0.393042 -0.0216213 0.543192 
34.4818 95.6439 -32.2029 -3.82878 1.80618 19.5488 -0.325496 1.97314 -0.454462 9.02711 -15.0306 3.96329 -1.56379 16.9329 -12.4205 3.30605 -6.00709 0.0330541 1.63931 -4.08246 -1.49157 -0.115535 -1.66535 -1.31026 1.54462 4.41938 -1.96519 -9.89827 -1.24738 -16.9375 3.07144 -9.97128 3.00618 -0.64046 3.94875 -0.896666 -0.638311 3.94874 -0.897381 -1.37977 -6.22047 0.826025 -22.9739 7.40609 0.715022 -52.1426 46.6897 11.5914 15.4278 -18.4914 -43.3601 9.733 1.09028 1.98276 1.59028e-015 3.18055e-015 3.18055e-015 -1.59028e-015 0 -0 6.60433 12.1542 39.911 33.2944 -42.6289 31.475 -79.6823 11.0409 63.1496 -39.5364 -3.51871 0.291763 1.31038e-031 1.59028e-015 -4.72114e-015 0 0 -9.44227e-016 0.102911 -0.246681 0.443096 
34.525 95.6907 -32.2747 -3.30397 2.07481 21.9893 -0.524447 2.03166 -0.496121 8.16428 -15.2397 3.5756 -1.28948 15.7727 -14.2717 2.9145 -5.24518 0.0086576 1.60844 -3.85444 -1.60831 -0.589123 -1.86408 -1.89322 1.84626 5.14017 -2.12945 -10.1632 -1.29102 -18.2939 3.05473 -9.89097 2.91764 -1.03235 4.06762 -0.974415 -1.03229 4.0676 -0.974452 0.404469 -4.88544 -0.518517 -22.5219 5.76949 0.724041 -53.7761 46.0802 12.8041 16.3281 -17.2323 -44.0319 9.54357 1.4857 2.96703 -4.77083e-015 3.18055e-015 -6.36111e-015 -3.18055e-015 0 -9.54166e-015 8.91967 12.3912 38.6228 20.2928 -40.7521 26.7832 -69.7729 4.38488 58.8219 -37.9201 -1.42492 -2.30524 3.97569e-016 -1.59028e-015 2.13693e-015 -0 0 2.83268e-015 -1.26264 -0.0659101 -0.122127 
34.8406 95.7269 -32.2085 -1.96263 1.51307 21.8689 -0.586303 1.97321 -0.53579 6.97223 -13.3177 4.41019 -1.12254 14.342 -14.6397 2.52032 -4.89737 0.0048843 1.88728 -3.51378 -2.07084 -1.86609 -1.38975 -2.38126 2.02146 6.60767 -1.83996 -10.3581 -1.94109 -18.1298 3.08253 -9.97089 2.93515 -1.15235 3.95171 -1.049 -1.15353 3.95195 -1.05073 2.33299 -3.49087 -2.60928 -23.3953 3.84054 1.17553 -58.0204 44.9147 16.6275 17.9443 -14.279 -43.5018 8.40837 2.24513 3.19504 -3.18055e-015 1.59028e-014 -3.18055e-015 -1.59028e-015 9.54167e-015 -3.18055e-015 5.69496 9.77496 35.466 17.9749 -35.6588 30.233 -70.3314 4.95619 59.8968 -34.3456 -2.86283 0.514692 0 0 -2.18663e-015 -3.97569e-016 0 -1.21756e-015 -3.23862 0.522429 -1.1455 
34.9862 95.7554 -32.2016 -1.17463 0.531015 18.546 -0.27735 1.96075 -0.686043 6.58925 -11.0385 5.96426 -1.19583 13.7956 -12.7906 1.84741 -5.51719 0.0255961 1.6617 -3.02534 -1.92256 -2.77801 -1.22822 -1.2615 1.80405 7.69043 -1.58009 -10.1417 -2.53339 -16.493 3.08644 -10.0243 3.02171 -0.529428 3.92194 -1.38314 -0.53137 3.9216 -1.37373 1.63423 -2.89278 -2.20968 -23.6455 3.11522 1.90147 -60.6347 45.2419 19.5887 19.6195 -11.1471 -42.3972 5.27084 2.41893 2.27606 -1.59028e-015 3.18055e-015 3.18055e-015 -4.77083e-015 0 -0 3.01356 7.94105 35.5446 16.9148 -32.2779 34.5109 -63.8704 3.31811 58.2711 -31.8617 -2.47616 6.594 1.19271e-015 -4.77083e-015 1.80149e-015 1.44119e-015 -4.77083e-015 5.23052e-015 -3.57091 -0.486503 -0.931793 
34.9362 95.6943 -32.3022 -0.971402 0.0936231 14.5081 -0.0184055 1.97489 -0.794987 6.63325 -9.91518 8.93305 -0.904962 14.2369 -11.8884 1.63208 -6.383 0.0355036 1.49191 -2.94766 -1.65963 -3.25195 -2.05114 -0.313654 1.49659 8.83495 -1.13352 -9.76565 -3.48468 -14.2809 3.05707 -10.0009 3.0653 -0.0171655 3.95011 -1.57033 -0.00602682 3.95011 -1.58023 1.87465 -2.51475 -1.08378 -24.7969 3.03591 1.39065 -61.0015 46.9961 19.8445 19.1321 -8.55012 -39.1884 4.11319 2.07761 1.14346 -3.18055e-015 -1.27222e-014 1.59028e-015 -6.36111e-015 -6.36111e-015 1.59028e-015 2.28349 7.50018 36.295 16.4648 -29.8654 37.9493 -64.0045 2.0656 60.2034 -24.8794 -1.39847 10.2625 -3.97569e-016 0 1.13307e-014 -2.38542e-015 0 2.18663e-015 -4.40488 -3.03737 0.313796 
34.9581 95.646 -32.3223 -0.48337 -0.461089 10.7887 -0.0211056 1.99535 -0.480883 5.80248 -8.4413 6.9089 -0.560727 13.8053 -7.34619 1.62749 -6.38729 0.0360446 1.30693 -3.41078 -1.15259 -3.8812 -2.55216 -1.16093 1.14786 9.9657 -0.522719 -9.13512 -4.78958 -11.2772 3.06625 -10.0865 3.16986 -0.0244782 3.99071 -0.962823 -0.0257296 3.99076 -0.962391 5.06498 -1.82979 -1.86388 -27.6078 2.63185 -0.501216 -61.6766 48.2522 19.5261 18.831 -4.81365 -35.2863 4.44908 1.83245 0.0160017 -1.59028e-015 6.36111e-015 3.18055e-015 -1.76556e-031 6.36111e-015 1.59028e-015 0.228087 6.99294 35.6851 16.9983 -26.2817 39.9404 -63.9533 0.127487 65.4621 -19.5083 -1.54226 11.845 2.38542e-015 3.18055e-015 2.78298e-015 3.97569e-015 3.18056e-015 -1.19271e-015 -7.27257 -4.99516 0.91885 
34.9274 95.6251 -32.3619 -0.11507 -0.863512 7.56224 -0.0631366 1.95408 -0.112257 5.33576 -7.13574 5.63165 -0.692416 13.2505 -3.7893 2.41367 -5.96564 0.0307861 1.43192 -3.94789 -0.966686 -4.37751 -3.1443 -1.7534 0.904115 11.0209 -0.264008 -8.4146 -5.82582 -8.63804 2.95739 -9.85214 3.19214 -0.122543 3.90832 -0.222544 -0.122563 3.9083 -0.222545 8.15245 -1.78851 -2.83571 -29.7182 2.58301 -1.88729 -62.3406 48.4308 18.8416 18.9288 -1.06173 -32.5627 3.93502 2.03296 -0.853098 -3.18055e-015 9.54166e-015 -1.59028e-015 3.18055e-015 3.18056e-015 -4.77083e-015 -0.928521 7.07692 33.6396 18.4785 -21.5318 41.1633 -64.7941 -0.346399 72.1421 -19.1408 -4.87919 12.8627 5.56597e-015 0 -3.97569e-016 6.36111e-015 -3.18056e-015 -1.98785e-015 -9.63834 -5.54954 1.20764 
34.7671 95.606 -32.2988 0.146849 -1.69896 4.70585 -0.0578085 2.04733 -0.00434756 5.1465 -5.50521 7.51936 -0.36114 12.6847 -3.30212 2.64472 -5.79252 0.0235513 1.48588 -4.23887 -0.907646 -4.63995 -3.23031 -1.47422 0.753587 11.7477 0.0571363 -7.98034 -6.55215 -6.79418 2.83617 -9.56879 3.17959 -0.112472 4.09465 -0.00647752 -0.115577 4.09465 -0.00661959 9.64878 -1.53165 -3.06308 -31.5401 2.34019 -2.45548 -61.4655 47.7745 17.4064 18.5962 1.46671 -30.2063 4.71003 2.10155 -1.72904 -3.18055e-015 -3.18055e-015 1.59028e-015 -1.59028e-015 -6.36111e-015 1.59028e-015 0.868234 7.82327 33.0021 17.0061 -16.4696 39.1116 -61.8226 -2.15459 78.395 -18.1785 -7.72904 11.7394 3.18055e-015 0 -0 7.95139e-016 3.18056e-015 -1.59028e-015 -10.6678 -5.94912 1.62213 
